<mxfile host="app.diagrams.net" modified="2023-04-13T15:50:34.487Z" agent="5.0 (Macintosh; Intel Mac OS X 10_15_7) AppleWebKit/537.36 (KHTML, like Gecko) Chrome/112.0.0.0 Safari/537.36" etag="wE7ijy4-shg5U0Rqpr5f" version="20.8.16" type="github">
  <diagram name="AWS Server Archite" id="SD0fxXQnRGEGHcpXXhom">
    <mxGraphModel dx="796" dy="394" grid="1" gridSize="10" guides="1" tooltips="1" connect="1" arrows="1" fold="1" page="1" pageScale="1" pageWidth="850" pageHeight="1100" math="0" shadow="0">
      <root>
        <mxCell id="0" />
        <mxCell id="1" parent="0" />
        <mxCell id="J8JxiPBIUjwUQGdFOyxS-1" value="AWS RDS&lt;br&gt;DATABASE" style="rounded=0;whiteSpace=wrap;html=1;" parent="1" vertex="1">
          <mxGeometry x="720" y="200" width="120" height="230" as="geometry" />
        </mxCell>
        <mxCell id="-eDrcpmzAaLVg620y4rW-2" value="" style="rounded=0;whiteSpace=wrap;html=1;" parent="1" vertex="1">
          <mxGeometry x="370" y="100" width="230" height="440" as="geometry" />
        </mxCell>
        <mxCell id="7HLc04LlqgqcZBL5MIbF-3" value="JAVA TOMCAT&lt;br&gt;WEB SERVER&lt;br&gt;APPLICATION" style="whiteSpace=wrap;html=1;aspect=fixed;" vertex="1" parent="1">
          <mxGeometry x="400" y="150" width="170" height="170" as="geometry" />
        </mxCell>
        <mxCell id="7HLc04LlqgqcZBL5MIbF-4" value="DOCKER&amp;nbsp;&lt;br&gt;KUBERNETES&lt;br&gt;REPLICAS" style="whiteSpace=wrap;html=1;aspect=fixed;" vertex="1" parent="1">
          <mxGeometry x="400" y="350" width="170" height="170" as="geometry" />
        </mxCell>
        <mxCell id="7HLc04LlqgqcZBL5MIbF-5" value="&lt;font style=&quot;font-size: 18px;&quot;&gt;EC-2 Instance&lt;/font&gt;" style="text;html=1;strokeColor=none;fillColor=none;align=center;verticalAlign=middle;whiteSpace=wrap;rounded=0;" vertex="1" parent="1">
          <mxGeometry x="450" y="110" width="60" height="30" as="geometry" />
        </mxCell>
        <mxCell id="7HLc04LlqgqcZBL5MIbF-8" value="" style="shape=flexArrow;endArrow=classic;html=1;rounded=0;fillColor=#FF0831;entryX=1.009;entryY=0.309;entryDx=0;entryDy=0;exitX=-0.012;exitY=0.3;exitDx=0;exitDy=0;exitPerimeter=0;entryPerimeter=0;" edge="1" parent="1" source="J8JxiPBIUjwUQGdFOyxS-1" target="7HLc04LlqgqcZBL5MIbF-3">
          <mxGeometry width="50" height="50" relative="1" as="geometry">
            <mxPoint x="650" y="290" as="sourcePoint" />
            <mxPoint x="700" y="240" as="targetPoint" />
            <Array as="points">
              <mxPoint x="640" y="235" />
            </Array>
          </mxGeometry>
        </mxCell>
        <mxCell id="7HLc04LlqgqcZBL5MIbF-10" value="" style="shape=flexArrow;endArrow=classic;html=1;rounded=0;fillColor=#FF0831;exitX=-0.029;exitY=0.652;exitDx=0;exitDy=0;exitPerimeter=0;width=12;endSize=6.44;endWidth=17;entryX=1.015;entryY=0.556;entryDx=0;entryDy=0;entryPerimeter=0;" edge="1" parent="1" source="J8JxiPBIUjwUQGdFOyxS-1" target="7HLc04LlqgqcZBL5MIbF-4">
          <mxGeometry width="50" height="50" relative="1" as="geometry">
            <mxPoint x="650" y="390" as="sourcePoint" />
            <mxPoint x="571" y="446" as="targetPoint" />
            <Array as="points">
              <mxPoint x="640" y="400" />
            </Array>
          </mxGeometry>
        </mxCell>
        <mxCell id="7HLc04LlqgqcZBL5MIbF-11" value="&lt;font style=&quot;font-size: 18px;&quot;&gt;Auto Scaling&lt;/font&gt;" style="text;html=1;strokeColor=none;fillColor=none;align=center;verticalAlign=middle;whiteSpace=wrap;rounded=0;" vertex="1" parent="1">
          <mxGeometry x="370" y="60" width="230" height="30" as="geometry" />
        </mxCell>
        <mxCell id="7HLc04LlqgqcZBL5MIbF-12" value="Database" style="text;html=1;strokeColor=none;fillColor=none;align=center;verticalAlign=middle;whiteSpace=wrap;rounded=0;fontSize=18;" vertex="1" parent="1">
          <mxGeometry x="750" y="160" width="60" height="30" as="geometry" />
        </mxCell>
        <mxCell id="7HLc04LlqgqcZBL5MIbF-13" value="" style="rounded=0;whiteSpace=wrap;html=1;fontSize=18;" vertex="1" parent="1">
          <mxGeometry x="110" y="100" width="180" height="440" as="geometry" />
        </mxCell>
        <mxCell id="7HLc04LlqgqcZBL5MIbF-14" value="" style="whiteSpace=wrap;html=1;aspect=fixed;fontSize=18;" vertex="1" parent="1">
          <mxGeometry x="130" y="150" width="140" height="140" as="geometry" />
        </mxCell>
        <mxCell id="7HLc04LlqgqcZBL5MIbF-16" value="" style="whiteSpace=wrap;html=1;aspect=fixed;fontSize=18;" vertex="1" parent="1">
          <mxGeometry x="130" y="360" width="140" height="140" as="geometry" />
        </mxCell>
        <mxCell id="7HLc04LlqgqcZBL5MIbF-18" value="" style="shape=flexArrow;endArrow=classic;html=1;rounded=0;fontSize=18;fillColor=#FF0831;endWidth=15;endSize=4.5;" edge="1" parent="1" target="7HLc04LlqgqcZBL5MIbF-14">
          <mxGeometry width="50" height="50" relative="1" as="geometry">
            <mxPoint x="370" y="220" as="sourcePoint" />
            <mxPoint x="360" y="190" as="targetPoint" />
          </mxGeometry>
        </mxCell>
        <mxCell id="7HLc04LlqgqcZBL5MIbF-19" value="" style="shape=flexArrow;endArrow=classic;html=1;rounded=0;fontSize=18;fillColor=#FF0831;endWidth=15;endSize=4.5;" edge="1" parent="1">
          <mxGeometry width="50" height="50" relative="1" as="geometry">
            <mxPoint x="370" y="440" as="sourcePoint" />
            <mxPoint x="270" y="440" as="targetPoint" />
          </mxGeometry>
        </mxCell>
        <mxCell id="7HLc04LlqgqcZBL5MIbF-20" value="Docker&amp;nbsp;&lt;br&gt;Kubernetes&lt;br&gt;Nginx" style="text;html=1;strokeColor=none;fillColor=none;align=center;verticalAlign=middle;whiteSpace=wrap;rounded=0;fontSize=18;" vertex="1" parent="1">
          <mxGeometry x="170" y="415" width="60" height="30" as="geometry" />
        </mxCell>
        <mxCell id="7HLc04LlqgqcZBL5MIbF-21" value="Nginx" style="text;html=1;strokeColor=none;fillColor=none;align=center;verticalAlign=middle;whiteSpace=wrap;rounded=0;fontSize=18;" vertex="1" parent="1">
          <mxGeometry x="130" y="195" width="140" height="50" as="geometry" />
        </mxCell>
        <mxCell id="7HLc04LlqgqcZBL5MIbF-23" value="EC-2&lt;br&gt;Instance" style="text;html=1;strokeColor=none;fillColor=none;align=center;verticalAlign=middle;whiteSpace=wrap;rounded=0;fontSize=18;" vertex="1" parent="1">
          <mxGeometry x="170" y="110" width="60" height="30" as="geometry" />
        </mxCell>
        <mxCell id="fjs6LFG_CPTni5zmu1i5-1" value="" style="sketch=0;aspect=fixed;html=1;points=[];align=center;image;fontSize=12;image=img/lib/mscae/Kubernetes.svg;" vertex="1" parent="1">
          <mxGeometry x="510" y="463" width="50" height="48" as="geometry" />
        </mxCell>
        <mxCell id="fjs6LFG_CPTni5zmu1i5-2" value="" style="sketch=0;aspect=fixed;html=1;points=[];align=center;image;fontSize=12;image=img/lib/mscae/Docker.svg;" vertex="1" parent="1">
          <mxGeometry x="410" y="466.5" width="50" height="41" as="geometry" />
        </mxCell>
        <mxCell id="fjs6LFG_CPTni5zmu1i5-3" value="" style="sketch=0;aspect=fixed;html=1;points=[];align=center;image;fontSize=12;image=img/lib/mscae/SQL_Database_generic.svg;" vertex="1" parent="1">
          <mxGeometry x="758.2" y="340" width="45.6" height="60" as="geometry" />
        </mxCell>
        <mxCell id="fjs6LFG_CPTni5zmu1i5-4" value="" style="sketch=0;points=[[0,0,0],[0.25,0,0],[0.5,0,0],[0.75,0,0],[1,0,0],[0,1,0],[0.25,1,0],[0.5,1,0],[0.75,1,0],[1,1,0],[0,0.25,0],[0,0.5,0],[0,0.75,0],[1,0.25,0],[1,0.5,0],[1,0.75,0]];outlineConnect=0;fontColor=#232F3E;gradientColor=#F78E04;gradientDirection=north;fillColor=#D05C17;strokeColor=#ffffff;dashed=0;verticalLabelPosition=bottom;verticalAlign=top;align=center;html=1;fontSize=12;fontStyle=0;aspect=fixed;shape=mxgraph.aws4.resourceIcon;resIcon=mxgraph.aws4.ec2;" vertex="1" parent="1">
          <mxGeometry x="410" y="110" width="30" height="30" as="geometry" />
        </mxCell>
        <mxCell id="fjs6LFG_CPTni5zmu1i5-5" value="" style="sketch=0;points=[[0,0,0],[0.25,0,0],[0.5,0,0],[0.75,0,0],[1,0,0],[0,1,0],[0.25,1,0],[0.5,1,0],[0.75,1,0],[1,1,0],[0,0.25,0],[0,0.5,0],[0,0.75,0],[1,0.25,0],[1,0.5,0],[1,0.75,0]];outlineConnect=0;fontColor=#232F3E;gradientColor=#F78E04;gradientDirection=north;fillColor=#D05C17;strokeColor=#ffffff;dashed=0;verticalLabelPosition=bottom;verticalAlign=top;align=center;html=1;fontSize=12;fontStyle=0;aspect=fixed;shape=mxgraph.aws4.resourceIcon;resIcon=mxgraph.aws4.auto_scaling2;" vertex="1" parent="1">
          <mxGeometry x="390" y="57.5" width="35" height="35" as="geometry" />
        </mxCell>
        <mxCell id="fjs6LFG_CPTni5zmu1i5-7" value="" style="sketch=0;outlineConnect=0;fontColor=#232F3E;gradientColor=none;fillColor=#2E27AD;strokeColor=none;dashed=0;verticalLabelPosition=bottom;verticalAlign=top;align=center;html=1;fontSize=12;fontStyle=0;aspect=fixed;pointerEvents=1;shape=mxgraph.aws4.rds_instance;" vertex="1" parent="1">
          <mxGeometry x="752" y="212" width="58" height="58" as="geometry" />
        </mxCell>
      </root>
    </mxGraphModel>
  </diagram>
</mxfile>
